<?xml version="1.0" encoding="utf-8"?>
<!-- Generator: Adobe Illustrator 22.0.0, SVG Export Plug-In . SVG Version: 6.00 Build 0)  -->
<svg version="1.1" xmlns="http://www.w3.org/2000/svg" xmlns:xlink="http://www.w3.org/1999/xlink" x="0px" y="0px"
	 viewBox="0 0 400 400" style="enable-background:new 0 0 400 400;" xml:space="preserve">
<g id="Layer_1">
	<g>
		<path d="M361,171c13.8,0,25,11.2,25,25v8c0,13.8-11.2,25-25,25H39c-13.8,0-25-11.2-25-25v-8c0-13.8,11.2-25,25-25H361z"/>
	</g>
</g>
<g id="Layer_2">
	<g>
		<path d="M229,361c0,13.8-11.2,25-25,25h-8c-13.8,0-25-11.2-25-25V39c0-13.8,11.2-25,25-25h8c13.8,0,25,11.2,25,25V361z"/>
	</g>
</g>
</svg>
