<?xml version="1.0" encoding="utf-8"?>
<!-- Generator: Adobe Illustrator 22.0.0, SVG Export Plug-In . SVG Version: 6.00 Build 0)  -->
<svg version="1.1" id="Layer_1" xmlns="http://www.w3.org/2000/svg" xmlns:xlink="http://www.w3.org/1999/xlink" x="0px" y="0px"
	 viewBox="0 0 400 400" style="enable-background:new 0 0 400 400;" xml:space="preserve">
<g>
	<path d="M17.2,174.1c-9.5-10-9.2-26.1,0.6-35.7L143.2,14.6C153,4.9,161,8.2,161.1,22l0.9,349c0,13.7-11.2,25-24.9,25h-5
		c-13.8,0-25-11.2-24.9-25l0.8-223c0.1-13.7-7.9-17.1-17.7-7.4l-36.4,35.9c-9.8,9.7-25.5,9.4-35-0.6L17.2,174.1z"/>
</g>
<g>
	<path d="M378.8,226.9c9.5,10,9.2,26.1-0.5,35.8L252.7,387.4c-9.8,9.7-17.8,6.4-17.8-7.4l-0.9-349c0-13.7,11.2-25,24.9-25h5
		c13.8,0,25,11.2,24.9,25l-0.8,223c-0.1,13.7,7.9,17,17.6,7.3l36.6-36.6c9.7-9.7,25.4-9.5,34.9,0.5L378.8,226.9z"/>
</g>
</svg>
